<?xml version="1.0" ?><!DOCTYPE svg  PUBLIC '-//W3C//DTD SVG 1.1//EN'  'http://www.w3.org/Graphics/SVG/1.1/DTD/svg11.dtd'><svg enable-background="new -0.7 -0.6 20 29" height="29px" version="1.1" viewBox="-0.7 -0.6 20 29" width="20px" xml:space="preserve" xmlns="http://www.w3.org/2000/svg" xmlns:xlink="http://www.w3.org/1999/xlink"><defs/><path clip-rule="evenodd" d="M10.8,22.8V26h5v2h-5h-3h-5v-2h5v-3.2C3.4,22.2,0,18.7,0,14.4v-3  c0-0.1,0-0.3,0-0.4h2.8c0,0.3-0.1,0.6-0.1,0.9V14c0,3.3,2.9,6,6.5,6c3.6,0,6.5-2.7,6.5-6v-2.1c0-0.3,0-0.6-0.1-0.9h2.8  c0,0.1,0,0.3,0,0.4v3C18.6,18.7,15.2,22.2,10.8,22.8z M9.3,18c-2.5,0-4.5-2-4.5-4.5v-9C4.8,2,6.8,0,9.3,0s4.5,2,4.5,4.5v9  C13.8,16,11.8,18,9.3,18z" fill="#0D0D0D" fill-rule="evenodd"/></svg>